<?xml version="1.0" encoding="utf-8"?>
<!-- Generator: Adobe Illustrator 20.1.0, SVG Export Plug-In . SVG Version: 6.00 Build 0)  -->
<svg version="1.1" id="Layer_1" xmlns="http://www.w3.org/2000/svg" xmlns:xlink="http://www.w3.org/1999/xlink" x="0px" y="0px"
	 viewBox="0 0 1920 1920" style="enable-background:new 0 0 1920 1920;" xml:space="preserve">
<style type="text/css">
	.st0{fill:#009966;stroke:#009966;stroke-width:80;stroke-linecap:round;stroke-miterlimit:10;}
	.st1{fill:none;stroke:#009966;stroke-width:60;stroke-miterlimit:10;}
	.st2{fill:#009966;}
	.st3{fill:none;stroke:#009966;stroke-width:40;stroke-miterlimit:10;}
</style>
<path class="st0" d="M751.7,1349.5l-447.9,447.9c-8.7,8.7-23,8.7-31.7,0l-37.1-37.1c-8.7-8.7-8.7-23,0-31.7L683,1280.8
	c8.7-8.7,23-8.7,31.7,0l37.1,37.1C760.4,1326.6,760.4,1340.8,751.7,1349.5z"/>
<g>
	<line class="st1" x1="837.8" y1="1192.3" x2="731.9" y2="1298.1"/>
</g>
<g>
	<path class="st2" d="M1216,319.2c66.8,0,131.6,13.1,192.6,38.9c58.9,24.9,111.9,60.6,157.3,106.1s81.2,98.4,106.1,157.3
		c25.8,61,38.9,125.8,38.9,192.6s-13.1,131.6-38.9,192.6c-24.9,58.9-60.6,111.9-106.1,157.3s-98.4,81.2-157.3,106.1
		c-61,25.8-125.8,38.9-192.6,38.9c-66.8,0-131.6-13.1-192.6-38.9c-58.9-24.9-111.9-60.6-157.3-106.1s-81.2-98.4-106.1-157.3
		c-25.8-61-38.9-125.8-38.9-192.6s13.1-131.6,38.9-192.6c24.9-58.9,60.6-111.9,106.1-157.3S964.4,383,1023.4,358
		C1084.3,332.2,1149.2,319.2,1216,319.2 M1216,279.2c-295.4,0-534.9,239.5-534.9,534.9S920.6,1349,1216,1349
		c295.4,0,534.9-239.5,534.9-534.9S1511.4,279.2,1216,279.2L1216,279.2z"/>
</g>
<path class="st3" d="M1548.5,577.3c130.8,130.8,130.8,342.8,0,473.6"/>
</svg>
