<?xml version="1.0" encoding="utf-8"?>
<!-- Generator: Adobe Illustrator 20.1.0, SVG Export Plug-In . SVG Version: 6.00 Build 0)  -->
<svg version="1.1" xmlns="http://www.w3.org/2000/svg" xmlns:xlink="http://www.w3.org/1999/xlink" x="0px" y="0px"
	 viewBox="0 0 1920 1920" style="enable-background:new 0 0 1920 1920;" xml:space="preserve">
<style type="text/css">
	.st0{display:none;}
	.st1{display:inline;}
	.st2{fill:#202020;}
	.st3{fill:none;stroke:#202020;stroke-width:40;stroke-miterlimit:10;}
	.st4{display:inline;fill:none;stroke:#202020;stroke-width:20;stroke-miterlimit:10;}
	.st5{fill:#019664;}
</style>
<g id="lens" class="st0">
	<g class="st1">
		<path class="st2" d="M698.8,1294.3c0.5,0,1.1,0.1,1.7,0.7l37.1,37.1c0.6,0.6,0.7,1.2,0.7,1.7c0,0.5-0.1,1.1-0.7,1.7l-447.9,447.9
			c-0.6,0.6-1.2,0.7-1.7,0.7c-0.5,0-1.1-0.1-1.7-0.7l-37.1-37.1c-0.6-0.6-0.7-1.2-0.7-1.7c0-0.5,0.1-1.1,0.7-1.7L697.1,1295
			C697.7,1294.4,698.3,1294.3,698.8,1294.3 M698.8,1274.3c-5.7,0-11.5,2.2-15.8,6.5l-447.9,447.9c-8.7,8.7-8.7,23,0,31.7l37.1,37.1
			c4.4,4.4,10.1,6.5,15.8,6.5s11.5-2.2,15.8-6.5l447.9-447.9c8.7-8.7,8.7-23,0-31.7l-37.1-37.1
			C710.3,1276.5,704.5,1274.3,698.8,1274.3L698.8,1274.3z"/>
	</g>
	<g class="st1">
		<line class="st3" x1="837.8" y1="1192.3" x2="731.9" y2="1298.1"/>
	</g>
	<g class="st1">
		<path class="st2" d="M1216,299.2c69.5,0,137,13.6,200.4,40.5c61.3,25.9,116.4,63.1,163.7,110.4c47.3,47.3,84.4,102.4,110.4,163.7
			c26.8,63.5,40.5,130.9,40.5,200.4s-13.6,137-40.5,200.4c-25.9,61.3-63.1,116.4-110.4,163.7c-47.3,47.3-102.4,84.4-163.7,110.4
			c-63.5,26.8-130.9,40.5-200.4,40.5c-69.5,0-137-13.6-200.4-40.5c-61.3-25.9-116.4-63.1-163.7-110.4
			c-47.3-47.3-84.4-102.4-110.4-163.7c-26.8-63.5-40.5-130.9-40.5-200.4s13.6-137,40.5-200.4c25.9-61.3,63.1-116.4,110.4-163.7
			c47.3-47.3,102.4-84.4,163.7-110.4C1079,312.8,1146.5,299.2,1216,299.2 M1216,279.2c-295.4,0-534.9,239.5-534.9,534.9
			S920.6,1349,1216,1349s534.9-239.5,534.9-534.9S1511.4,279.2,1216,279.2L1216,279.2z"/>
	</g>
	<path class="st4" d="M1575,577.3c130.8,130.8,130.8,342.8,0,473.6"/>
</g>
<g id="Layer_2">
	<polygon class="st5" points="960,144.9 1224.8,681.5 1817,767.6 1388.5,1185.3 1489.7,1775.1 960,1496.6 430.3,1775.1 
		531.5,1185.3 103,767.6 695.2,681.5 	"/>
</g>
</svg>
